<svg xmlns="http://www.w3.org/2000/svg" fill="none" viewBox="0 0 12 11" height="11" width="12">
<path fill="white" d="M5.05258 11C5.0509 11 5.04894 11 5.04726 11C4.97786 10.9986 4.91238 10.9682 4.86536 10.9161L0.0671715 5.57545C-0.0151024 5.48379 -0.0226581 5.34572 0.0492616 5.24517C0.121181 5.14491 0.252148 5.11054 0.362406 5.16325L4.75398 7.2681C4.79092 7.28586 4.83458 7.27727 4.86284 7.24719L11.5617 0.0804351C11.6524 -0.0166723 11.8007 -0.027271 11.9037 0.0563731C12.0067 0.140017 12.0305 0.290118 11.9585 0.402694L5.29492 10.8519C5.28541 10.8671 5.27421 10.8808 5.2619 10.8937L5.23252 10.9238C5.18466 10.9725 5.11974 11 5.05258 11Z"></path>
</svg>
