<svg width="160" height="33" viewBox="0 0 160 33" fill="none" xmlns="http://www.w3.org/2000/svg">
<g clip-path="url(#clip0_18_454)">
<path d="M54.5268 5.47059H55.9484V9.6072H57.7258L59.3611 3.04575V0.407332H54.5268V5.47059ZM32.9153 11.1049C33.9816 11.1049 34.479 11.9608 34.479 18.665H30.9958C31.1379 11.9608 31.7066 11.1049 32.9153 11.1049ZM39.3845 24.5845H37.1095V25.3691C37.1095 28.6498 36.185 30.2187 34.2655 30.2187C32.0618 30.2187 30.9955 28.7921 30.9955 21.3035V20.7332H39.6684C39.6684 11.9608 37.749 8.53748 32.915 8.53748C28.0808 8.53748 24.9526 13.5297 24.9526 21.2327C24.9526 28.8636 27.9384 33 33.0571 33C37.4647 33 39.3842 30.5039 39.3842 25.2265L39.3845 24.5845ZM99.7579 11.1049C100.824 11.1049 101.322 11.9608 101.322 18.665H98.0345C98.1766 11.9608 98.5492 11.1049 99.7579 11.1049ZM106.227 24.5845H103.952V25.3691C103.952 28.6498 103.028 30.2187 101.108 30.2187C98.9045 30.2187 98.0342 28.7921 98.0342 21.3035V20.7332H106.511C106.511 11.9608 104.592 8.53748 99.7576 8.53748C94.9234 8.53748 91.7955 13.5297 91.7955 21.2324C91.7955 28.8636 94.7816 33 99.9 33C104.308 33 106.227 30.5039 106.227 25.2265V24.5845ZM137.649 33C140.848 33 142.199 31.0031 142.199 28.15V24.5845H140.067V28.15C140.067 29.6482 139.853 30.1469 139.142 30.1469C138.502 30.1469 138.289 29.719 138.289 28.3639V11.2474H142.199V9.0367H138.36V2.40396H136.156L132.886 9.32182H130.967V11.1762H132.673V27.0088C132.673 31.1456 133.384 33 137.649 33ZM121.156 14.8848C121.156 10.4631 119.166 8.60902 114.9 8.60902C110.635 8.60902 107.72 11.6756 107.72 15.313V16.7394H112.626V13.3872C112.626 11.4615 113.052 10.7485 114.118 10.7485C115.185 10.7485 115.611 11.3903 115.611 13.3872V17.3099C109.142 19.5204 107.152 21.1612 107.152 26.6526C107.152 30.9318 108.858 33 111.773 33C114.261 33 115.398 31.2882 116.038 30.2187V32.572H122.365V30.6462H121.157V14.8848H121.156ZM158.194 30.6462V13.7436C158.194 10.249 156.631 8.60876 153.858 8.60876C150.517 8.60876 149.166 11.1049 149.166 11.1049V0.121948L142.128 0.906556V2.76063H143.763V30.6462H142.626V32.572H150.446V30.6462H149.308V15.8833C149.308 13.3159 150.019 12.2461 151.299 12.2461C152.223 12.2461 152.578 12.8167 152.578 14.243V30.6462H151.299V32.572H159.758V30.6462H158.194ZM115.611 19.3066V26.5811C115.611 28.7208 115.185 29.577 113.976 29.577C113.052 29.577 112.625 28.7921 112.625 26.2249C112.625 21.8742 112.981 20.8045 115.611 19.3066ZM90.7121 30.6462V2.33295H92.3474V0.478348H82.6076V2.33268H84.5982V15.5979H78.3424V2.33295H80.404V0.478348H70.5221V2.33268H72.2284V30.6459H70.5221V32.5718H80.404V30.6459H78.3424V17.8092H84.5982V30.6462H82.6076V32.572H92.3474V30.6462H90.7121ZM129.829 30.6462V0.121948L122.507 0.906556V2.76063H124.284V30.6462H123.147V32.572H131.536V30.6462H129.829ZM70.1668 26.2247C70.1668 18.665 62.0626 18.1656 62.0626 13.1731C62.0626 11.4615 62.9155 10.6057 64.2663 10.6057C66.3279 10.6057 67.3945 12.6738 67.5366 17.024H69.3847V9.89232C69.3847 9.89232 67.3232 8.60876 64.195 8.60876C60.4274 8.60876 57.3703 10.7482 57.3703 15.0987C57.3703 22.2306 65.2613 23.2293 65.2613 28.0788C65.2613 30.0046 64.3371 30.9318 62.844 30.9318C60.569 30.9318 59.4316 28.9349 59.2895 24.0137H57.4413V31.7164C57.4413 31.7164 59.7163 33 63.0574 33C67.1811 33 70.1668 30.6462 70.1668 26.2247ZM23.8866 30.6462V2.33295H25.3795V0.478348H17.0618L12.9387 18.5222L8.53105 0.478348H0V2.33268H1.77737V30.6459H0V32.5718H6.54026V30.6459H4.47868V10.7482L9.66842 32.5718H12.6542L17.7726 10.6057V30.6459H15.8532V32.5718H25.3795V30.6459L23.8866 30.6462ZM55.3797 30.6462V13.7436C55.3797 10.249 53.8161 8.60876 51.1145 8.60876C47.7732 8.60876 46.4224 11.1049 46.4224 11.1049V8.60876L39.3132 9.39336V11.319H40.9484V30.6462H39.2424V32.572H47.7018V30.6462H46.5645V15.8833C46.5645 13.3159 47.2755 12.2461 48.555 12.2461C49.4792 12.2461 49.8345 12.8167 49.8345 14.243V30.6462H48.555V32.572H56.5171V30.6462H55.3797Z" fill="#2B2B2B"></path>
</g>
<defs>
<clipPath id="clip0_18_454">
<rect width="160" height="33" fill="white"></rect>
</clipPath>
</defs>
</svg>
